<svg width="32" height="23" viewBox="0 0 32 23" fill="none" xmlns="http://www.w3.org/2000/svg">
<path d="M32 8.29319V14.0733H22.9529V8.29319H32ZM11.4764 22.3246H20.4817V16.5445H11.4764V22.3246ZM32 4.85864C32 2.17801 29.822 0 27.1414 0H22.9948V5.7801H32V4.85864ZM11.4764 0V5.7801H20.4817V0H11.4764ZM0 8.29319V14.0733H9.00523V8.29319H0ZM22.9529 22.3246H27.0995C29.7801 22.3246 31.9581 20.1466 31.9581 17.466V16.5445H22.9529V22.3246ZM0 17.466C0 20.1466 2.17801 22.3246 4.85864 22.3246H9.00523V16.5445H0V17.466ZM0 4.85864V5.7801H9.00523V0H4.85864C2.17801 0 0 2.17801 0 4.85864Z" fill="#DA291C"/>
</svg>
